<?xml version="1.0" encoding="UTF-8"?>
<svg id="Layer_2" data-name="Layer 2" xmlns="http://www.w3.org/2000/svg" viewBox="0 0 1975.64 374.03">
  <defs>
    <style>
      .cls-1 {
        fill: #f4e930;
      }

      .cls-2 {
        fill: #17178b;
      }
    </style>
  </defs>
  <g id="Layer_1-2" data-name="Layer 1">
    <g>
      <g>
        <path class="cls-2" d="M902.86,60.3v51.83c0,41.11-33.89,62.29-81.23,62.29h-3.74c-48.34,0-81.23-20.68-81.23-62.29v-51.83c0-37.87,34.14-60.3,80.98-60.3h3.99c45.35,0,81.23,22.92,81.23,60.3ZM864.74,64.78c0-22.17-18.44-33.64-43.11-33.64h-3.99c-25.17,0-42.86,12.46-42.86,33.39v43.36c0,24.42,16.69,35.63,43.11,35.63h3.74c26.41,0,43.11-11.22,43.11-35.63v-43.11Z"/>
        <path class="cls-2" d="M966.21,64.78v44.85c0,23.17,18.44,32.89,43.36,32.89,18.93,0,35.88-3.49,48.59-11.46l12.71,28.16c-17.94,10.97-34.63,15.2-63.79,15.2-45.35,0-78.74-20.93-78.74-62.79v-49.09c0-38.87,36.13-62.54,78.49-62.54,28.65,0,47.09,4.73,65.78,16.94l-13.95,27.41c-13.21-7.73-28.4-12.21-49.34-12.21-22.92,0-43.11,11.71-43.11,32.64Z"/>
        <path class="cls-2" d="M1227.86,2.49h38.12v108.14c0,42.61-38.12,63.79-82.73,63.79s-82.97-20.93-82.97-63.79V2.49h37.62v103.91c0,25.42,21.18,37.13,44.86,37.13s45.1-12.21,45.1-37.13V2.49Z"/>
        <path class="cls-2" d="M1335.07,2.49v138.54h101.66v30.9h-139.54V2.49h37.88Z"/>
        <path class="cls-2" d="M1581.57,2.49h38.12v108.14c0,42.61-38.12,63.79-82.72,63.79s-82.97-20.93-82.97-63.79V2.49h37.62v103.91c0,25.42,21.18,37.13,44.85,37.13s45.1-12.21,45.1-37.13V2.49Z"/>
        <path class="cls-2" d="M1788.99,122.09c.25,34.14-32.89,51.83-72.01,51.83-28.16,0-60.3-9.97-78.74-26.91l14.95-24.92c17.94,12.21,38.87,20.93,63.79,20.93s32.64-7.97,32.64-19.44-6.48-16.94-41.36-22.18c-45.6-7.22-65.78-20.43-66.03-49.33-.5-34.14,34.63-51.83,71.01-51.83,27.41,0,48.84,5.73,72.76,20.93l-14.21,27.41c-21.68-12.46-37.12-16.94-58.56-16.94s-31.89,8.47-31.89,19.94,7.73,16.45,39.87,20.43c40.86,5.23,67.52,17.19,67.78,50.08Z"/>
        <path class="cls-2" d="M774.53,264.4v44.85c0,23.17,18.44,32.89,43.36,32.89,18.93,0,35.88-3.49,48.59-11.46l12.71,28.15c-17.94,10.96-34.63,15.2-63.79,15.2-45.35,0-78.74-20.93-78.74-62.79v-49.09c0-38.87,36.13-62.54,78.49-62.54,28.65,0,47.09,4.73,65.78,16.94l-13.95,27.41c-13.21-7.73-28.4-12.21-49.34-12.21-22.92,0-43.11,11.71-43.11,32.64Z"/>
        <path class="cls-2" d="M1064.14,259.91v51.83c0,41.11-33.89,62.29-81.23,62.29h-3.74c-48.34,0-81.23-20.68-81.23-62.29v-51.83c0-37.88,34.14-60.3,80.98-60.3h3.99c45.35,0,81.23,22.93,81.23,60.3ZM1026.01,264.4c0-22.18-18.44-33.64-43.11-33.64h-3.99c-25.17,0-42.86,12.46-42.86,33.39v43.36c0,24.42,16.69,35.63,43.11,35.63h3.74c26.41,0,43.11-11.21,43.11-35.63v-43.11Z"/>
        <path class="cls-2" d="M1222.93,202.1h35.13v169.44h-35.88l-94.44-119.85v119.85h-35.13v-169.44h35.88l94.44,119.11v-119.11Z"/>
        <path class="cls-2" d="M1282.75,233.5v-31.4h165.7v31.4h-64.54v138.04h-37.88v-138.04h-63.29Z"/>
        <path class="cls-2" d="M1590,300.78l43.1,70.77h-41.36l-37.37-62.54h-43.1v62.54h-37.88v-169.44h89.7c38.87,0,64.54,15.95,64.54,49.09v5.73c0,23.42-15.2,37.88-37.62,43.85ZM1511.26,280.1h49.84c14.45-.25,28.4-6.48,28.4-20.18v-6.23c0-13.21-11.71-20.43-28.9-20.43h-49.33v46.84Z"/>
        <path class="cls-2" d="M1815.31,259.91v51.83c0,41.11-33.89,62.29-81.23,62.29h-3.74c-48.34,0-81.23-20.68-81.23-62.29v-51.83c0-37.88,34.14-60.3,80.98-60.3h3.99c45.34,0,81.23,22.93,81.23,60.3ZM1777.18,264.4c0-22.18-18.44-33.64-43.1-33.64h-3.99c-25.17,0-42.86,12.46-42.86,33.39v43.36c0,24.42,16.69,35.63,43.1,35.63h3.74c26.41,0,43.1-11.21,43.1-35.63v-43.11Z"/>
        <path class="cls-2" d="M1873.98,202.1v138.55h101.66v30.9h-139.54v-169.44h37.88Z"/>
      </g>
      <g>
        <path class="cls-2" d="M327.42,63.62c-10.8,12.2-19.96,25.79-27.19,40.47,16.7,22.84,26.8,50.88,27.19,81.18.31-30.3,10.33-58.34,27.11-81.18-7.22-14.68-16.39-28.28-27.11-40.47Z"/>
        <path class="cls-2" d="M308.45,151.18c-7.85,13.59-17.94,25.71-29.75,35.89-24.55,21.28-56.63,34.18-91.66,34.18s-67.12-12.89-91.74-34.18c-11.81-10.18-21.91-22.29-29.75-35.89-12.27,10.41-23.23,22.53-32.39,35.89,9.24,13.28,20.12,25.4,32.39,35.81,32.7,28.04,75.12,44.98,121.49,44.98s88.71-16.93,121.42-44.98c12.27-10.41,23.15-22.53,32.39-35.81-9.17-13.36-20.12-25.48-32.39-35.89Z"/>
        <path class="cls-2" d="M308.45,151.18c-32.7-28.04-75.12-44.98-121.42-44.98s-88.79,16.93-121.49,44.98c-12.27,10.41-23.23,22.53-32.39,35.89,9.24,13.28,20.12,25.4,32.39,35.81,7.85-13.59,17.94-25.71,29.75-35.81,24.62-21.44,56.71-34.26,91.74-34.26s67.12,12.82,91.66,34.26c11.81,10.1,21.91,22.22,29.75,35.81,12.27-10.41,23.15-22.53,32.39-35.81-9.17-13.36-20.12-25.48-32.39-35.89Z"/>
        <path class="cls-1" d="M467.72,327.43c-46.38,0-87.55-22.6-113.18-57.41-7.22,14.68-16.39,28.2-27.11,40.39,34.18,39,84.44,63.62,140.29,63.62,90.81,0,166.78-65.17,183.48-151.17h-47.77c-15.85,60.13-70.69,104.56-135.71,104.56ZM327.35,187.06c0-.62,0-1.16.08-1.79.16-11.73,1.71-23.15,4.58-34.1,4.51-17.17,12.27-33.09,22.53-47.07,25.56-34.88,66.73-57.48,113.18-57.48,64.94,0,119.78,44.43,135.71,104.56h47.77C634.5,65.1,558.53,0,467.72,0c-55.85,0-106.11,24.63-140.29,63.62-10.8,12.2-19.96,25.79-27.19,40.47-12.51,25.01-19.5,53.21-19.5,82.96s6.99,57.87,19.42,82.89c10.33-13.9,18.1-29.83,22.61-47.07,2.87-10.88,4.51-22.29,4.66-34.02-.08-.62-.08-1.17-.08-1.79Z"/>
        <path class="cls-2" d="M374.03,187.06c0,29.83-6.99,57.95-19.5,82.96-7.22,14.68-16.39,28.2-27.11,40.39-34.33,39-84.52,63.62-140.45,63.62C83.9,374.03,0,290.14,0,187.06S83.9,0,186.98,0c55.93,0,106.11,24.63,140.45,63.62-10.8,12.2-19.96,25.79-27.19,40.47-25.56-34.88-66.81-57.48-113.26-57.48-77.37,0-140.37,63-140.37,140.45s63,140.37,140.37,140.37c46.45,0,87.7-22.68,113.18-57.48,16.86-22.76,26.88-50.8,27.27-81.1v-3.57c.31-30.3,10.33-58.34,27.11-81.18,12.51,25.01,19.5,53.21,19.5,82.96Z"/>
        <circle class="cls-2" cx="187.02" cy="187.02" r="27.64"/>
      </g>
    </g>
  </g>
</svg>